<?xml version="1.0" encoding="utf-8"?>
<!-- Generator: Adobe Illustrator 19.0.0, SVG Export Plug-In . SVG Version: 6.00 Build 0)  -->
<svg version="1.1" id="Layer_1" xmlns="http://www.w3.org/2000/svg" xmlns:xlink="http://www.w3.org/1999/xlink" x="0px" y="0px"
	 viewBox="0 0 28 45" style="enable-background:new 0 0 28 45;" xml:space="preserve">
<style type="text/css">
	.st0{fill:#c8a744;}
</style>
<path id="XMLID_21_" class="st0" d="M28,40c0-0.5-0.4-1-1-1h-2c0,0,0-5,0-8c0-2.3-5.3-7-8-9c2.7-2.1,8-7.1,8-9c0-1.8,0-5,0-7h2
	c0.5,0,1-0.4,1-1V1c0-0.5-0.4-1-1-1H1C0.4,0,0,0.4,0,1V5c0,0.5,0.4,1,1,1h2c0,1.6,0,4.9,0,7c0,2,5.3,6.9,8,9c-2.7,2-8,6.7-8,9
	c0,3,0,8,0,8H1c-0.5,0-1,0.4-1,1V44c0,0.5,0.4,1,1,1H27c0.5,0,1-0.4,1-1V40z M2,4V2h24v2H2z M5,13c0-1.4,0-5.2,0-7h18
	c0,1.8,0,5.6,0,7c0,1.9-8,8-8,8h-2C13,21,5,14.9,5,13z M5,31c0-1.9,8-8,8-8h2c0,0,8,6.1,8,8c0,1.9,0,8,0,8H5C5,39,5,32.9,5,31z
	 M2,41h24v2H2V41z"/>
<path id="XMLID_16_" class="st0" d="M7,12L7,12l0-2h2v0C9,11.1,8.1,12,7,12z"/>
<path id="XMLID_26_" class="st0" d="M13,12L13,12l0-2h2v0C15,11.1,14.1,12,13,12z"/>
<path id="XMLID_27_" class="st0" d="M19,12L19,12l0-2h2v0C21,11.1,20.1,12,19,12z"/>
<path id="XMLID_28_" class="st0" d="M10,15L10,15l0-2h2v0C12,14.1,11.1,15,10,15z"/>
<path id="XMLID_29_" class="st0" d="M16,15L16,15l0-2h2v0C18,14.1,17.1,15,16,15z"/>
<path id="XMLID_30_" class="st0" d="M13,18L13,18l0-2h2v0C15,17.1,14.1,18,13,18z"/>
<path id="XMLID_31_" class="st0" d="M15,37L15,37l-2,0v-2h0C14.1,35,15,35.9,15,37z"/>
<path id="XMLID_32_" class="st0" d="M12,34L12,34l-2,0v-2h0C11.1,32,12,32.9,12,34z"/>
<path id="XMLID_33_" class="st0" d="M9,37L9,37l-2,0v-2h0C8.1,35,9,35.9,9,37z"/>
<path id="XMLID_34_" class="st0" d="M21,37L21,37l-2,0v-2h0C20.1,35,21,35.9,21,37z"/>
<path id="XMLID_35_" class="st0" d="M18,34L18,34l-2,0v-2h0C17.1,32,18,32.9,18,34z"/>
</svg>
