<?xml version="1.0" encoding="utf-8"?>
<!-- Generator: Adobe Illustrator 19.0.0, SVG Export Plug-In . SVG Version: 6.00 Build 0)  -->
<svg version="1.1" id="Layer_1" xmlns="http://www.w3.org/2000/svg" xmlns:xlink="http://www.w3.org/1999/xlink" x="0px" y="0px"
	 viewBox="0 0 34 43" style="enable-background:new 0 0 34 43;" xml:space="preserve">
<style type="text/css">
	.st0{fill:none;}
	.st1{fill:#c8a744;}
</style>
<g id="XMLID_15_">
	<polygon id="XMLID_49_" class="st0" points="16,19 16,18 15,19 	"/>
	<polygon id="XMLID_50_" class="st0" points="6,19 8,19 16,11 16,8 6,18 	"/>
	<polygon id="XMLID_51_" class="st0" points="13,19 16,16 16,13 10,19 	"/>
	<polygon id="XMLID_52_" class="st0" points="28,23 28,21 26,21 	"/>
	<path id="XMLID_53_" class="st0" d="M24,21h-3l5.5,5.5c0.5-0.7,0.8-1.3,1.1-1.9L24,21z"/>
	<path id="XMLID_54_" class="st0" d="M6,23c0,2.8,5.3,8.3,10,12V21H6V23z"/>
	<path id="XMLID_55_" class="st0" d="M6,11.8V16l6.5-6.5C10.5,10.5,8.2,11.4,6,11.8z"/>
	<path id="XMLID_56_" class="st0" d="M25.6,27.6L19,21h-1v2l6.2,6.2C24.7,28.7,25.2,28.2,25.6,27.6z"/>
	<path id="XMLID_57_" class="st0" d="M18,33v2c0.4-0.3,0.7-0.6,1.1-0.9L18,33z"/>
	<path id="XMLID_58_" class="st0" d="M28,11.8c-3.7-0.6-7.6-2.8-10-4.3V19h10V11.8z"/>
	<path id="XMLID_59_" class="st0" d="M21.2,32.2L18,29v2l2.2,2.2C20.5,32.9,20.9,32.6,21.2,32.2z"/>
	<path id="XMLID_62_" class="st0" d="M2,8v15c0,7.1,10.1,15.1,15,17.7C21.9,38,32,30.1,32,23V8c-5.2-0.7-10.7-2.9-15-6
		C12.7,5.1,7.2,7.3,2,8z M30,23c0,5.7-13,15-13,15S4,28.7,4,23c0-2,0-11.6,0-13c5.5,0,13-5.5,13-5.5S24.5,10,30,10
		C30,11.4,30,21,30,23z"/>
	<path id="XMLID_63_" class="st0" d="M23.3,30.3L18,25v2l4.3,4.3C22.6,30.9,22.9,30.6,23.3,30.3z"/>
	<path id="XMLID_66_" class="st1" d="M33.1,6C27.8,5.4,22.5,3.3,18,0h-2C11.5,3.3,6.2,5.4,0.9,6L0,7v16c0,10.4,17,20,17,20
		s17-9.6,17-20V7L33.1,6z M32,23c0,7.1-10.1,15-15,17.7C12.1,38.1,2,30.1,2,23V8c5.2-0.7,10.7-2.9,15-6c4.3,3.1,9.8,5.3,15,6V23z"/>
	<path id="XMLID_69_" class="st1" d="M4,10c0,1.4,0,11,0,13c0,5.7,13,15,13,15s13-9.3,13-15c0-2,0-11.6,0-13c-5.5,0-13-5.5-13-5.5
		S9.5,10,4,10z M6,11.8c2.2-0.4,4.5-1.3,6.5-2.3L6,16V11.8z M16,35c-4.7-3.7-10-9.2-10-12v-2h10V35z M16,19h-1l1-1V19z M16,16l-3,3
		h-3l6-6V16z M16,11l-8,8H6v-1L16,8V11z M26.5,26.5L21,21h3l3.6,3.6C27.3,25.2,27,25.8,26.5,26.5z M28,23l-2-2h2V23z M18,7.6
		c2.4,1.5,6.3,3.6,10,4.3V19H18V7.6z M18,21h1l6.6,6.6c-0.4,0.5-0.9,1.1-1.4,1.6L18,23V21z M18,25l5.3,5.3c-0.3,0.3-0.7,0.7-1,1
		L18,27V25z M18,29l3.2,3.2c-0.3,0.3-0.7,0.6-1.1,0.9L18,31V29z M18,33l1.1,1.1c-0.4,0.3-0.7,0.6-1.1,0.9V33z"/>
</g>
</svg>
