<?xml version="1.0" encoding="utf-8"?>
<!-- Generator: Adobe Illustrator 19.0.0, SVG Export Plug-In . SVG Version: 6.00 Build 0)  -->
<svg version="1.1" id="Layer_1" xmlns="http://www.w3.org/2000/svg" xmlns:xlink="http://www.w3.org/1999/xlink" x="0px" y="0px"
	 viewBox="0 0 45 40" style="enable-background:new 0 0 45 40;" xml:space="preserve">
<style type="text/css">
	.st0{fill:#c8a744;}
</style>
<g id="XMLID_18_">
	<path id="XMLID_122_" class="st0" d="M41,0H4C1.8,0,0,1.8,0,4v29c0,2.2,1.8,4,4,4v2c0,0.6,0.4,1,1,1h3c0.6,0,1-0.4,1-1v-2h27v2
		c0,0.6,0.4,1,1,1h3c0.6,0,1-0.4,1-1v-2c2.2,0,4-1.8,4-4V4C45,1.8,43.2,0,41,0z M7,38H6v-1h1V38z M39,38h-1v-1h1V38z M43,33
		c0,1.1-0.9,2-2,2H4c-1.1,0-2-0.9-2-2V4c0-1.1,0.9-2,2-2h37c1.1,0,2,0.9,2,2V33z"/>
	<path id="XMLID_127_" class="st0" d="M11,28h1c1.1,0,2-0.9,2-2V11c0-1.1-0.9-2-2-2h-1c-1.1,0-2,0.9-2,2v15C9,27.1,9.9,28,11,28z
		 M11,11h1v15h-1V11z"/>
	<path id="XMLID_130_" class="st0" d="M26.5,28c5.2,0,9.5-4.3,9.5-9.5S31.7,9,26.5,9S17,13.3,17,18.5S21.3,28,26.5,28z M26.5,11
		c4.1,0,7.5,3.4,7.5,7.5S30.6,26,26.5,26S19,22.6,19,18.5S22.4,11,26.5,11z"/>
	<path id="XMLID_133_" class="st0" d="M26.5,23c2.5,0,4.5-2,4.5-4.5S29,14,26.5,14S22,16,22,18.5S24,23,26.5,23z M26.5,16
		c1.4,0,2.5,1.1,2.5,2.5c0,1.4-1.1,2.5-2.5,2.5S24,19.9,24,18.5C24,17.1,25.1,16,26.5,16z"/>
	<path id="XMLID_136_" class="st0" d="M40,9V7c0-1.1-0.9-2-2-2H7C5.9,5,5,5.9,5,7v23c0,1.1,0.9,2,2,2h31c1.1,0,2-0.9,2-2v-2
		c1.1,0,2-0.9,2-2v-2c0-1.1-0.9-2-2-2v-7c1.1,0,2-0.9,2-2v-2C42,9.9,41.1,9,40,9z M38,9.3c-0.6,0.3-1,1-1,1.7v2c0,0.7,0.4,1.4,1,1.7
		v7.6c-0.6,0.3-1,1-1,1.7v2c0,0.7,0.4,1.4,1,1.7V30H7V7h31V9.3z M40,26h-1v-2h1V26z M40,13h-1v-2h1V13z"/>
</g>
</svg>
