<?xml version="1.0" encoding="utf-8"?>
<!-- Generator: Adobe Illustrator 19.0.0, SVG Export Plug-In . SVG Version: 6.00 Build 0)  -->
<svg version="1.1" id="Layer_1" xmlns="http://www.w3.org/2000/svg" xmlns:xlink="http://www.w3.org/1999/xlink" x="0px" y="0px"
	 viewBox="0 0 46 42" style="enable-background:new 0 0 46 42;" xml:space="preserve">
<style type="text/css">
	.st0{fill:#c8a744;}
	.st1{fill:none;}
</style>
<path id="XMLID_44_" class="st0" d="M30,18c-1.7,0-3,1.3-3,3c0,0.6,0.4,1,1,1s1-0.4,1-1c0-0.6,0.4-1,1-1s1,0.4,1,1c0,0.6,0.4,1,1,1
	s1-0.4,1-1C33,19.3,31.7,18,30,18z"/>
<path id="XMLID_24_" class="st0" d="M15,18c-1.7,0-3,1.3-3,3c0,0.6,0.4,1,1,1s1-0.4,1-1c0-0.6,0.4-1,1-1s1,0.4,1,1c0,0.6,0.4,1,1,1
	s1-0.4,1-1C18,19.3,16.7,18,15,18z"/>
<path id="XMLID_43_" class="st0" d="M25,28c-0.6,0-1,0.4-1,1c0,0.6-0.4,1-1,1h-2c-0.6,0-1-0.4-1-1c0-0.6-0.4-1-1-1s-1,0.4-1,1
	c0,1.7,1.3,3,3,3h2c1.7,0,3-1.3,3-3C26,28.4,25.6,28,25,28z"/>
<g id="XMLID_22_">
	<path id="XMLID_23_" class="st1" d="M3,15c-0.6,0-1,0.4-1,1v5c0,0.6,0.4,1,1,1h1.2C4.1,21,4,20,4,19c0-1.4,0.2-2.7,0.4-4H3z"/>
	<path id="XMLID_25_" class="st1" d="M23,2c-6.5,0-12.1,3.6-15,9c2.3,0.2,5.7-3.9,5.7-3.9s7,6,15.3,6c5.1,0,8.4-2.9,8.4-2.9
		C34.4,5.2,29.1,2,23,2z"/>
	<path id="XMLID_39_" class="st1" d="M43,15h-1.4c0.3,1.3,0.4,2.6,0.4,4c0,1-0.1,2-0.2,3H43c0.6,0,1-0.4,1-1v-5
		C44,15.4,43.6,15,43,15z"/>
	<path id="XMLID_51_" class="st0" d="M43,13h-2C38.5,5.5,31.4,0,23,0S7.5,5.5,5,13H3c-1.7,0-3,1.3-3,3v5c0,1.7,1.3,3,3,3h1.7
		c1.6,6,6.1,10.7,11.8,12.8c0.3-0.6,0.8-1.2,1.3-1.7C11,33,6,26.6,6,19c0-2.1,0.4-4.1,1.1-6c0.1,0,0.2,0,0.3,0c1.2,0,4.5-0.3,6.5-3
		c4.3,3.8,8.9,5,15,5s9-3,9-3l0.4-0.2c1,2.2,1.6,4.6,1.6,7.2c0,7.8-5.3,14.4-12.6,16.4c0.5,0.5,0.9,1.1,1.2,1.8
		c6.2-1.9,11-6.9,12.7-13.1H42c0,7.7-8,14-15.2,14c-0.4-1.2-1.5-2-2.8-2h-3c-1.7,0-3,1.3-3,3s1.3,3,3,3h3c1.3,0,2.4-0.8,2.8-1.9
		C35.2,40.1,44,32.8,44,24c0-0.1,0-0.1,0-0.2c1.2-0.4,2-1.5,2-2.8v-5C46,14.3,44.7,13,43,13z M4.2,22H3c-0.6,0-1-0.4-1-1v-5
		c0-0.6,0.4-1,1-1h1.4C4.2,16.3,4,17.6,4,19C4,20,4.1,21,4.2,22z M29,13c-8.3,0-15.3-6-15.3-6S10.3,11.2,8,11c2.9-5.3,8.5-9,15-9
		c6.1,0,11.4,3.2,14.4,8.1C37.4,10.1,34.1,13,29,13z M25,40h-5v-2h5V40z M44,21c0,0.6-0.4,1-1,1h-1.2c0.2-1,0.2-2,0.2-3
		c0-1.4-0.2-2.7-0.4-4H43c0.6,0,1,0.4,1,1V21z"/>
</g>
</svg>
