<?xml version="1.0" encoding="utf-8"?>
<!-- Generator: Adobe Illustrator 19.0.0, SVG Export Plug-In . SVG Version: 6.00 Build 0)  -->
<svg version="1.1" id="Layer_1" xmlns="http://www.w3.org/2000/svg" xmlns:xlink="http://www.w3.org/1999/xlink" x="0px" y="0px"
	 viewBox="0 0 46 46" style="enable-background:new 0 0 46 46;" xml:space="preserve">
<style type="text/css">
	.st0{fill:#c8a744;}
</style>
<circle id="XMLID_17_" class="st0" cx="35.5" cy="22.5" r="1.5"/>
<circle id="XMLID_58_" class="st0" cx="6" cy="11" r="1"/>
<circle id="XMLID_59_" class="st0" cx="10" cy="11" r="1"/>
<circle id="XMLID_60_" class="st0" cx="14" cy="11" r="1"/>
<circle id="XMLID_61_" class="st0" cx="18" cy="11" r="1"/>
<circle id="XMLID_62_" class="st0" cx="22" cy="11" r="1"/>
<circle id="XMLID_63_" class="st0" cx="26" cy="11" r="1"/>
<circle id="XMLID_81_" class="st0" cx="30" cy="11" r="1"/>
<circle id="XMLID_82_" class="st0" cx="34" cy="11" r="1"/>
<circle id="XMLID_90_" class="st0" cx="6" cy="35" r="1"/>
<circle id="XMLID_89_" class="st0" cx="10" cy="35" r="1"/>
<circle id="XMLID_88_" class="st0" cx="14" cy="35" r="1"/>
<circle id="XMLID_87_" class="st0" cx="18" cy="35" r="1"/>
<circle id="XMLID_86_" class="st0" cx="22" cy="35" r="1"/>
<path id="XMLID_5_" class="st0" d="M41,18.3V9c0-1.7-1.3-3-3-3h-1V3c0-1.7-1.3-3-3-3H3C1.3,0,0,1.3,0,3v34c0,1.7,1.3,3,3,3
	c0,0,21,0,21,0c0.6,0,1-0.4,1-1c0-0.6-0.4-1-1-1c0,0-21,0-21,0c-0.6,0-1-0.4-1-1V8h36c0.6,0,1,0.4,1,1v9h-7c-1.1,0-2,0.9-2,2v4
	c0,0.6,0.4,1,1,1s1-0.4,1-1v-4h8v4c0,0.6,0.4,1,1,1s1-0.4,1-1v-4C42,19.3,41.6,18.6,41,18.3z M35,6H3C2.4,6,2,5.6,2,5V3
	c0-0.6,0.4-1,1-1h31c0.6,0,1,0.4,1,1V6z"/>
<path id="XMLID_57_" class="st0" d="M36,26c-5.5,0-10,4.5-10,10c0,5.5,4.5,10,10,10s10-4.5,10-10C46,30.5,41.5,26,36,26z M36,44
	c-4.4,0-8-3.6-8-8s3.6-8,8-8s8,3.6,8,8S40.4,44,36,44z"/>
<path id="XMLID_3_" class="st0" d="M37.4,36l2.1-2.1c0.4-0.4,0.4-1,0-1.4c-0.4-0.4-1-0.4-1.4,0L36,34.6l-2.1-2.1
	c-0.4-0.4-1-0.4-1.4,0c-0.4,0.4-0.4,1,0,1.4l2.1,2.1l-2.1,2.1c-0.4,0.4-0.4,1,0,1.4c0.4,0.4,1,0.4,1.4,0l2.1-2.1l2.1,2.1
	c0.4,0.4,1,0.4,1.4,0c0.4-0.4,0.4-1,0-1.4L37.4,36z"/>
</svg>
