<?xml version="1.0" encoding="utf-8"?>
<!-- Generator: Adobe Illustrator 19.0.0, SVG Export Plug-In . SVG Version: 6.00 Build 0)  -->
<svg version="1.1" id="Layer_1" xmlns="http://www.w3.org/2000/svg" xmlns:xlink="http://www.w3.org/1999/xlink" x="0px" y="0px"
	 viewBox="0 0 46 47" style="enable-background:new 0 0 46 47;" xml:space="preserve">
<style type="text/css">
	.st0{fill:#c8a744;}
</style>
<path id="XMLID_97_" class="st0" d="M46,14.5c-0.3-1.3-3.1-2.5-6.5-2.5c-3.6,0-6.5,1.1-6.5,2.5c0,0.1,0,10.2,0,10.2
	c-1.2-0.4-2.8-0.7-4.5-0.7s-3.3,0.3-4.5,0.7c0,0,0-2.1,0-2.2c0-1.4-2.9-2.5-6.5-2.5S11,21.1,11,22.5c0,0,0,10.2,0,10.2
	C9.8,32.3,8.2,32,6.5,32c-3.2,0-6,1-6.5,2v6c0,0,0,0.4,0,0.5C0,41.9,2.9,43,6.5,43c1.7,0,3.3-0.3,4.5-0.7V45c0.9,0.9,3.8,2,6.5,2
	c3.1,0,5.9-0.9,6.5-2v-2.7c1.2,0.4,2.8,0.7,4.5,0.7s3.3-0.3,4.5-0.7V45c0.6,1.1,3.4,2,6.5,2s5.9-0.9,6.5-2C46,45,46,14.5,46,14.5z
	 M11,40.3C9.8,40.7,8.3,41,6.5,41S3.2,40.7,2,40.3v-2C3.2,38.7,4.8,39,6.5,39s3.3-0.3,4.5-0.7V40.3z M11,36.3
	C9.8,36.7,8.3,37,6.5,37S3.2,36.7,2,36.3v-1.6C3.2,34.3,4.7,34,6.5,34s3.3,0.3,4.5,0.7V36.3z M22,44.3c-1.2,0.4-2.7,0.7-4.5,0.7
	c-1.8,0-3.4-0.3-4.5-0.7v-2c1.2,0.4,2.8,0.7,4.5,0.7c1.7,0,3.3-0.3,4.5-0.7V44.3z M22,40.3c-1.2,0.4-2.7,0.7-4.5,0.7
	c-1.8,0-3.4-0.3-4.5-0.7v-2c1.2,0.4,2.8,0.7,4.5,0.7c1.7,0,3.3-0.3,4.5-0.7V40.3z M22,36.3c-1.2,0.4-2.7,0.7-4.5,0.7
	c-1.8,0-3.4-0.3-4.5-0.7v-2c1.2,0.4,2.8,0.7,4.5,0.7c1.7,0,3.3-0.3,4.5-0.7V36.3z M22,32.3c-1.2,0.4-2.7,0.7-4.5,0.7
	c-1.8,0-3.4-0.3-4.5-0.7v-2c1.2,0.4,2.8,0.7,4.5,0.7c1.7,0,3.3-0.3,4.5-0.7V32.3z M22,28.3c-1.2,0.4-2.7,0.7-4.5,0.7
	c-1.8,0-3.4-0.3-4.5-0.7v-2c1.2,0.4,2.8,0.7,4.5,0.7s3.3-0.3,4.5-0.7V28.3z M22,24.3c-1.2,0.4-2.7,0.7-4.5,0.7s-3.3-0.3-4.5-0.7
	v-1.6c1.2-0.4,2.7-0.7,4.5-0.7s3.3,0.3,4.5,0.7V24.3z M33,40.3c-1.2,0.4-2.7,0.7-4.5,0.7c-1.8,0-3.3-0.3-4.5-0.7c0,0,0,0,0,0v-2
	c1.2,0.4,2.8,0.7,4.5,0.7s3.3-0.3,4.5-0.7V40.3z M33,36.3c-1.2,0.4-2.7,0.7-4.5,0.7c-1.8,0-3.3-0.3-4.5-0.7c0,0,0,0,0,0v-2
	c1.2,0.4,2.8,0.7,4.5,0.7s3.3-0.3,4.5-0.7V36.3z M33,32.3c-1.2,0.4-2.7,0.7-4.5,0.7c-1.8,0-3.3-0.3-4.5-0.7c0,0,0,0,0,0v-2
	c1.2,0.4,2.8,0.7,4.5,0.7s3.3-0.3,4.5-0.7V32.3z M33,28.3c-1.2,0.4-2.7,0.7-4.5,0.7c-1.8,0-3.3-0.3-4.5-0.7c0,0,0,0,0,0v-1.6
	c1.2-0.4,2.7-0.7,4.5-0.7s3.3,0.3,4.5,0.7V28.3z M35,14.7c1.2-0.4,2.7-0.7,4.5-0.7s3.3,0.3,4.5,0.7v1.6c-1.2,0.4-2.7,0.7-4.5,0.7
	s-3.3-0.3-4.5-0.7V14.7z M35,18.3c1.2,0.4,2.8,0.7,4.5,0.7s3.3-0.3,4.5-0.7v2c-1.2,0.4-2.7,0.7-4.5,0.7s-3.3-0.3-4.5-0.7V18.3z
	 M35,22.3c1.2,0.4,2.8,0.7,4.5,0.7s3.3-0.3,4.5-0.7v2c-1.2,0.4-2.7,0.7-4.5,0.7s-3.3-0.3-4.5-0.7V22.3z M35,26.3
	c1.2,0.4,2.8,0.7,4.5,0.7s3.3-0.3,4.5-0.7v2c-1.2,0.4-2.7,0.7-4.5,0.7s-3.3-0.3-4.5-0.7V26.3z M35,30.3c1.2,0.4,2.8,0.7,4.5,0.7
	s3.3-0.3,4.5-0.7v2c-1.2,0.4-2.7,0.7-4.5,0.7s-3.3-0.3-4.5-0.7V30.3z M35,34.3c1.2,0.4,2.8,0.7,4.5,0.7s3.3-0.3,4.5-0.7v2
	c-1.2,0.4-2.7,0.7-4.5,0.7s-3.3-0.3-4.5-0.7V34.3z M35,38.3c1.2,0.4,2.8,0.7,4.5,0.7s3.3-0.3,4.5-0.7v2c-1.2,0.4-2.7,0.7-4.5,0.7
	s-3.3-0.3-4.5-0.7V38.3z M35,44.3v-2c1.2,0.4,2.8,0.7,4.5,0.7s3.3-0.3,4.5-0.7v2c-1.2,0.4-2.7,0.7-4.5,0.7S36.2,44.7,35,44.3z"/>
<path id="XMLID_111_" class="st0" d="M29.7,8.3c-0.4-0.4-1-0.4-1.4,0L25,11.6V1c0-0.6-0.4-1-1-1s-1,0.4-1,1v10.6l-3.3-3.3
	c-0.4-0.4-1-0.4-1.4,0c-0.4,0.4-0.4,1,0,1.4l4.9,4.9c0.2,0.2,0.5,0.3,0.7,0.3c0,0,0,0,0,0c0,0,0,0,0,0s0,0,0,0c0.1,0,0.3,0,0.4-0.1
	c0.1-0.1,0.2-0.1,0.3-0.2l4.9-4.9C30,9.4,30,8.7,29.7,8.3z"/>
</svg>
